# xmcd
# Track frame offsets:
# 150
# 19329
# 36285
# 54833
# 71213
# 86964
# 101968
# 122205
# 136252
# 152754
# 168976
# 186667
# 203170
# 220832
# 233501
#
# Disc length: 3356 seconds
# Revision: 0
# Processed by: cddbd v1.5.2PL0 Copyright (c) Steve Scherf et al.
# Submitted via: VisiTrax 2.11.0.264 - For more info visit www.synapsa.com
#
DISCID=dd0d1a0f
DTITLE=Country - ASK72-1
DYEAR=1900
DGENRE=Country
TTITLE0=Jackson, Alan - A Woman's Love
TTITLE1=Shelton, Blake - Don't Make Me
TTITLE2=Paisley, Brad - Ticks
TTITLE3=Covington, Bucky - A Different World
TTITLE4=Underwood, Carrie - I'll Stand By You
TTITLE5=Morgan, Craig - Tough
TTITLE6=Worley, Darryl - I Just Came Back From A War
TTITLE7=Church, Eric - Guys Like Me
TTITLE8=Allan, Gary - A Feelin' Like That
TTITLE9=Strait, George - Give It Away
TTITLE10=Wilson, Gretchen - Come To Bed
TTITLE11=Heartland - I Loved Her First
TTITLE12=Ingram, Jack - Lips Of An Angel
TTITLE13=Ingram, Jack - Love You
TTITLE14=Owen, Jake - Starin' With Me
EXTD=
EXTT0=
EXTT1=
EXTT2=
EXTT3=
EXTT4=
EXTT5=
EXTT6=
EXTT7=
EXTT8=
EXTT9=
EXTT10=
EXTT11=
EXTT12=
EXTT13=
EXTT14=
PLAYORDER=
